<?xml version="1.0" encoding="utf-8"?>
<!-- Generator: Adobe Illustrator 25.2.1, SVG Export Plug-In . SVG Version: 6.00 Build 0)  -->
<svg version="1.1" id="Layer_1" xmlns="http://www.w3.org/2000/svg" xmlns:xlink="http://www.w3.org/1999/xlink" x="0px" y="0px"
	 viewBox="0 0 612 792" style="enable-background:new 0 0 612 792;" xml:space="preserve">
<style type="text/css">
	.st0{fill:#FFFFFF;stroke:#000000;stroke-miterlimit:10;}
	.st1{fill:url(#SVGID_1_);stroke:#000000;stroke-miterlimit:10;}
</style>
<path class="st0" d="M190,239"/>
<g>
	<g>
		<path d="M416.13,283.82c0.32,7.75,2.51,15.26,3.68,22.91c0.2,1.31-0.05-0.53,0.05,0.39c0.05,0.44,0.1,0.88,0.16,1.33
			c0.09,0.93,0.17,1.87,0.21,2.81c0.03,0.79,0.04,1.59,0.01,2.38c-0.01,0.42-0.03,0.84-0.06,1.26c-0.01,0.18-0.03,0.36-0.05,0.53
			c-0.07,0.74-0.13,0.43,0.03-0.1c-0.22,0.72-0.26,1.5-0.46,2.24c-0.1,0.39-0.22,0.79-0.34,1.17c-0.11,0.36-0.49,0.94-0.49,1.31
			c0-0.03,0.43-0.88,0.17-0.39c-0.11,0.21-0.21,0.43-0.32,0.63c-0.2,0.37-0.41,0.73-0.63,1.09c-0.2,0.31-0.4,0.61-0.62,0.91
			c-0.13,0.17-0.28,0.44-0.45,0.6c0.26-0.25,0.5-0.58,0.08-0.14c-0.53,0.57-1.06,1.12-1.67,1.63c-0.13,0.11-0.26,0.2-0.39,0.31
			c-0.48,0.46,0.83-0.54,0.26-0.19c-0.32,0.2-0.64,0.43-0.96,0.63c-0.66,0.4-1.35,0.73-2.04,1.06c-0.82,0.39,0.98-0.32-0.14,0.04
			c-0.43,0.13-0.84,0.28-1.27,0.39c-0.7,0.19-1.41,0.35-2.13,0.47c-0.08,0.01-0.56,0.04-0.67,0.1c0.03-0.02,1.11-0.08,0.54-0.08
			c-0.45,0-0.91,0.08-1.37,0.1c-0.8,0.03-1.61,0.03-2.41-0.01c-0.34-0.02-0.69-0.05-1.03-0.08c-1.28-0.1,0.91,0.16-0.34-0.04
			c-1.67-0.27-3.32-0.69-4.9-1.25c-0.17-0.06-0.32-0.12-0.49-0.18c-0.54-0.19,0.43,0.18,0.44,0.18c-0.33-0.2-0.75-0.33-1.12-0.49
			c-0.78-0.37-1.55-0.78-2.28-1.22c-0.34-0.21-0.68-0.42-1.01-0.65c-0.19-0.13-0.96-0.81-0.45-0.3c0.56,0.55-0.43-0.36-0.58-0.49
			c-0.41-0.34-0.8-0.69-1.19-1.05c-0.67-0.63-1.31-1.29-1.92-1.97c-0.22-0.24-0.66-0.59-0.76-0.89c0.25,0.67,0.35,0.45,0.08,0.1
			c-0.16-0.21-0.31-0.41-0.47-0.62c-1.23-1.68-2.32-3.47-3.24-5.32c-0.24-0.47-0.46-0.94-0.68-1.41c-0.04-0.1-0.31-0.7-0.05-0.12
			c0.29,0.67-0.15-0.35-0.2-0.49c-0.4-0.97-0.76-1.96-1.09-2.95c-1.35-4-2.22-8.13-2.82-12.29c-0.29-2.06-2.97-3.76-5.03-3.67
			c-2.09,0.09-4.7,1.47-5.03,3.67c-0.79,5.43,0.17,10.64,1.28,15.97c0.24,1.17,0.49,2.33,0.7,3.5c0.08,0.47,0.34,1.24,0.28,1.71
			c0.11-0.85-0.09-0.79-0.05-0.32c0.04,0.39,0.08,0.77,0.11,1.16c0.07,1.01,0.1,2.02,0.02,3.03c-0.01,0.14-0.11,1.17-0.01,0.25
			c0.09-0.91-0.03,0.08-0.06,0.23c-0.11,0.53-0.35,1.04-0.47,1.56c-0.13,0.63,0.62-1.12,0.1-0.25c-0.1,0.17-0.19,0.35-0.29,0.52
			c-0.05,0.09-0.53,0.68-0.5,0.76c-0.02-0.08,0.86-0.93,0.22-0.29c-0.22,0.22-0.88,1.1-1.2,1.13c0.35-0.04,0.72-0.44,0.16-0.13
			c-0.37,0.2-0.75,0.4-1.12,0.61c-0.64,0.36,1.2-0.36,0.07-0.04c-0.23,0.07-0.46,0.14-0.69,0.2c-0.14,0.03-0.95,0.3-1.06,0.22
			c-0.03-0.02,1.38-0.07,0.3-0.06c-0.63,0.01-1.23,0.04-1.85,0c-0.17-0.01-0.57,0-0.75-0.07c0.76,0.1,0.84,0.11,0.26,0.01
			c-0.19-0.03-0.38-0.07-0.56-0.11c-0.57-0.12-1.14-0.27-1.69-0.44c-0.38-0.12-0.74-0.25-1.12-0.38c-0.26-0.09-0.92-0.21,0.15,0.07
			c-1.26-0.33-2.58-1.24-3.65-1.92c-0.27-0.17-0.53-0.36-0.8-0.53c-0.78-0.51,0,0.03,0.13,0.11c-0.56-0.37-1.08-0.85-1.6-1.28
			c-1.15-0.97-2.23-1.99-3.25-3.08c-0.47-0.49-0.92-1-1.36-1.51c-0.13-0.15-0.97-1.21-0.22-0.24c-0.25-0.32-0.5-0.64-0.74-0.97
			c-0.89-1.19-1.7-2.43-2.44-3.71c-0.41-0.7-0.79-1.41-1.15-2.12c-0.13-0.24-0.24-0.48-0.35-0.72c-0.2-0.42-0.47-1.07-0.14-0.27
			c-0.62-1.49-1.16-2.99-1.61-4.53c-0.7-2.41-3.18-3.91-5.73-3.58c-2.53,0.33-4.53,2.4-4.53,4.91c0,1.98-0.04,3.96-0.19,5.93
			c-0.07,0.9-0.04,1.94-0.29,2.82c0.38-1.34-0.01,0.02-0.08,0.41c-0.1,0.57-0.22,1.14-0.35,1.7c-0.21,0.89-0.46,1.76-0.76,2.63
			c-0.08,0.22-0.28,1.15-0.48,1.25c0.16-0.07,0.46-0.93,0.11-0.29c-0.16,0.29-0.29,0.59-0.46,0.88c-0.21,0.38-0.44,0.76-0.68,1.12
			c-0.11,0.18-0.25,0.36-0.38,0.54c-0.53,0.81,0.19-0.28,0.22-0.24c0.05,0.07-1.93,2.15-2.12,2.07c-0.03-0.01,1.08-0.71,0.23-0.18
			c-0.2,0.12-0.39,0.25-0.58,0.37c-0.43,0.26-0.88,0.48-1.32,0.7c-0.96,0.47,0.16-0.11,0.2-0.07c-0.01-0.01-0.63,0.21-0.72,0.24
			c-0.38,0.11-1.6,0.18-1.84,0.42c0.07-0.07,1.27-0.1,0.26-0.04c-0.25,0.01-0.5,0.04-0.76,0.05c-0.51,0.02-1.02,0.02-1.52-0.01
			c-0.26-0.01-0.51-0.04-0.76-0.06c-0.76-0.06,0.05-0.19,0.24,0.04c-0.2-0.23-1.56-0.31-1.9-0.39c-0.5-0.13-1-0.28-1.5-0.45
			c-0.1-0.04-0.73-0.22-0.74-0.26c0,0.01,1.16,0.52,0.16,0.06c-1.01-0.47-1.99-0.97-2.93-1.56c-0.27-0.17-0.54-0.36-0.8-0.54
			c-0.29-0.19-0.73-0.29,0.13,0.1c-0.45-0.2-0.9-0.73-1.25-1.05c-0.88-0.78-1.7-1.62-2.48-2.5c-0.18-0.21-0.35-0.42-0.54-0.62
			c-0.41-0.45,0.48,0.65-0.09-0.11c-0.42-0.55-0.83-1.1-1.22-1.66c-0.75-1.08-1.46-2.19-2.13-3.31c-1.38-2.32-2.62-4.72-3.84-7.12
			c-3,1.68-6.01,3.36-9,5.05c5.52,8.34,11.04,16.68,16.56,25.02c2.5,3.78,5.14,7.52,7.22,11.54c0.24,0.46,0.46,0.92,0.69,1.39
			c0.43,0.87,0.09,0.2,0.02,0.01c0.11,0.27,0.23,0.54,0.33,0.81c0.41,1.02,0.76,2.06,1.04,3.11c0.14,0.49,0.25,0.99,0.35,1.49
			c0.05,0.25,0.16,0.6,0.16,0.86c0-0.16-0.1-1.05-0.03-0.12c0.08,0.96,0.14,1.92,0.1,2.89c-0.01,0.45-0.04,0.89-0.08,1.34
			c-0.01,0.1-0.08,0.76-0.08,0.76c-0.02-0.01,0.17-0.97,0.05-0.38c-0.21,1-0.4,2-0.69,2.98c-0.25,0.86-0.55,1.71-0.9,2.55
			c-0.06,0.15-0.41,0.92-0.11,0.3c0.27-0.58-0.01,0.02-0.06,0.11c-0.26,0.53-0.52,1.06-0.8,1.57c-0.93,1.69-2.01,3.29-3.18,4.84
			c-0.56,0.75-0.05,0.07,0.06-0.06c-0.18,0.21-0.34,0.42-0.52,0.62c-0.31,0.36-0.63,0.72-0.94,1.07c-0.69,0.75-1.4,1.48-2.14,2.19
			c-0.73,0.71-1.49,1.39-2.27,2.05c-0.37,0.31-0.73,0.61-1.1,0.9c-0.31,0.25-1.43,1.08-0.55,0.45c-1.63,1.18-3.31,2.29-5.04,3.32
			c-1.73,1.02-3.52,1.96-5.35,2.81c-0.79,0.37-1.73,0.96-2.59,1.14c0.94-0.2,0.43-0.17,0.11-0.05c-0.25,0.1-0.5,0.2-0.75,0.29
			c-0.5,0.19-1.01,0.38-1.52,0.56c-3.83,1.34-7.79,2.34-11.82,2.98c-0.47,0.08-0.94,0.14-1.41,0.21c-0.62,0.1,0.35-0.04,0.38-0.05
			c-0.2,0.08-0.57,0.07-0.81,0.1c-1.08,0.12-2.16,0.22-3.25,0.29c-1.97,0.13-3.94,0.17-5.91,0.13c-2.03-0.04-4.07-0.18-6.1-0.4
			c-1.37-0.15,0.53,0.09-0.43-0.05c-0.53-0.08-1.07-0.16-1.61-0.24c-1-0.16-2-0.35-2.99-0.56c-1.99-0.42-3.95-0.94-5.89-1.55
			c-0.91-0.28-1.8-0.59-2.69-0.92c-0.45-0.16-0.89-0.33-1.32-0.5c-0.89-0.34,0.04,0.03,0.19,0.07c-0.3-0.09-0.59-0.25-0.88-0.37
			c-3.44-1.49-6.73-3.29-9.82-5.36c-0.42-0.28-0.83-0.57-1.25-0.86c-0.17-0.11-1.27-0.91-0.7-0.49c0.53,0.38-0.48-0.37-0.68-0.52
			c-0.4-0.31-0.79-0.62-1.18-0.94c-1.46-1.19-2.87-2.45-4.22-3.76s-2.64-2.68-3.87-4.1c-0.28-0.33-0.57-0.66-0.84-1
			c-0.81-0.98,0.31,0.42-0.24-0.3c-0.62-0.79-1.22-1.58-1.79-2.39c-2.17-3.04-4.07-6.26-5.65-9.61c-0.08-0.18-0.66-1.41-0.35-0.75
			c0.28,0.6-0.23-0.54-0.32-0.76c-0.35-0.86-0.69-1.72-1-2.59c-0.63-1.74-1.17-3.51-1.62-5.29c-0.46-1.79-0.79-3.6-1.1-5.42
			c-0.11-0.71,0.11,0.95,0.03,0.23c-0.02-0.19-0.04-0.37-0.06-0.55c-0.05-0.43-0.09-0.87-0.14-1.3c-0.08-1-0.15-2-0.17-3
			c-0.04-1.88,0.02-3.76,0.22-5.64c0.05-0.49,0.09-1.39,0.02-0.35c0.03-0.43,0.14-0.87,0.21-1.29c0.18-0.98,0.4-1.95,0.65-2.91
			c0.22-0.84,0.47-1.66,0.76-2.48c0.15-0.41,0.29-0.81,0.45-1.21c0.04-0.1,0.3-0.65,0.28-0.68c0.06,0.09-0.43,0.91-0.08,0.19
			c0.79-1.65,1.7-3.25,2.78-4.74c0.1-0.14,0.29-0.46,0.45-0.59c-0.09,0.08-0.73,0.86-0.11,0.15c0.28-0.33,0.56-0.65,0.87-0.97
			c0.65-0.68,1.32-1.33,2.03-1.94c2.03-1.76,2-5.31,0-7.07c-2.17-1.91-5.2-1.87-7.37,0c-13.4,11.59-13.69,31.69-8.34,47.01
			c5.42,15.54,16.78,29.13,31.62,37.33c15.63,8.64,34.66,10.61,52.04,6.23c17.29-4.36,35.32-15.84,40.67-33.02
			c1.42-4.57,1.61-9.35,0.68-14.02c-0.96-4.79-3.35-9.31-5.94-13.47c-5.45-8.74-11.36-17.24-17.05-25.84
			c-1.43-2.15-2.86-4.31-4.28-6.46c-1.46-2.21-4.7-3.29-7.13-1.79c-2.51,1.55-3.16,4.32-1.87,6.84
			c5.03,9.82,11.13,19.97,22.72,23.42c5.49,1.63,11.79,1.34,16.77-1.57c4.61-2.7,7.55-7.06,9.18-11.91
			c1.69-5.05,1.95-10.55,1.95-15.82c-3.41,0.44-6.83,0.89-10.24,1.33c3.44,11.91,12.51,23.83,25.06,27.95
			c6.33,2.08,14.07,1.32,18.66-3.77c4.34-4.82,4.47-10.73,3.56-16.72c-0.45-2.95-1.18-5.86-1.72-8.79c-0.13-0.7-0.29-1.43-0.35-2.14
			c0.11,1.42,0.04,0.19,0.01-0.09c-0.04-0.35-0.07-0.7-0.09-1.05c-0.05-0.69-0.08-1.39-0.07-2.08c0-0.34,0.01-0.68,0.03-1.03
			c0.02-0.32,0.22-1.9-0.01-0.35c-3.35,0-6.71,0-10.05,0c2.27,15.87,10.06,33.61,27.81,37.97c7.81,1.92,16.51,1,22.99-3.82
			c7.11-5.27,9.6-13.82,9.08-22.14c-0.29-4.73-1.25-9.4-2.19-14.04c-0.45-2.22-0.9-4.43-1.26-6.67c-0.03-0.19-0.06-0.39-0.09-0.58
			c-0.04-0.25-0.36-1.47-0.04-0.23c-0.13-0.49-0.14-1.04-0.2-1.55c-0.13-1.14-0.22-2.29-0.26-3.44c-0.11-2.61-2.32-5.12-5.21-5
			C418.61,278.94,416.02,281.02,416.13,283.82L416.13,283.82z"/>
	</g>
</g>
<linearGradient id="SVGID_1_" gradientUnits="userSpaceOnUse" x1="300.57" y1="250.865" x2="324.52" y2="250.865">
	<stop  offset="0" style="stop-color:#FFFFFF"/>
	<stop  offset="1" style="stop-color:#000000"/>
</linearGradient>
<polygon class="st1" points="313,262.34 300.57,251.31 312.09,239.39 324.52,250.42 "/>
<path class="st0" d="M151.42,271.59"/>
<g>
	<g>
		<path d="M260.19,277.1c-2.67,0.66-5.34,1.31-8.01,1.97c-2.64,0.65-4.49,3.61-3.64,6.15c0.95,2.81,3.51,3.94,6.41,3.49
			c4.18-0.64,8.14-1.89,12.01-3.53c3.54-1.5,6.66-3.52,9.77-5.7c0.78-0.55,1.57-1.08,2.41-1.55c0.39-0.22,0.77-0.41,1.17-0.61
			c0.08-0.04,0.75-0.27,0.19-0.09c-0.57,0.19,0.3-0.07,0.41-0.1c0.41-0.12,0.83-0.18,1.24-0.29c0.64-0.18-0.38,0.04-0.35,0.03
			c0.09-0.07,0.67-0.05,0.82-0.06c0.42-0.02,0.82-0.01,1.24,0c0.21,0.01,0.42,0.04,0.62,0.04c0.74,0.01-0.88-0.18-0.15-0.02
			c0.83,0.18,1.66,0.33,2.48,0.57c0.49,0.14,0.97,0.3,1.44,0.46c0.21,0.07,0.42,0.15,0.62,0.23c0.1,0.04,0.96,0.39,0.41,0.15
			c-0.55-0.24,0.13,0.06,0.2,0.09c0.21,0.09,0.41,0.18,0.62,0.27c0.41,0.19,0.81,0.38,1.22,0.57c0.95,0.46,1.9,0.93,2.84,1.42
			c6.46,3.31,12.91,6.07,20.22,7.03c7.28,0.95,14.64,0.62,21.75-1.2c7.93-2.02,15.26-5.82,21.37-11.06c1.94-1.66,1.91-4.7,0.41-6.57
			c-1.66-2.06-4.36-2.4-6.73-1.29c-2.78,1.3-5.53,2.69-8.31,4.01c-1.39,0.66-2.78,1.3-4.19,1.91c-0.38,0.16-0.74,0.32-1.12,0.47
			c0.2-0.08,0.84-0.33-0.1,0.04c-0.72,0.27-1.44,0.54-2.16,0.79c-5.44,1.89-11.11,3.08-16.79,4.11
			c-11.66,2.12-23.45,3.72-34.21,8.81c-18.54,8.77-31.51,27.28-35.01,46.59c-3.8,20.94,2.2,42.62,15.99,59.2
			c13.52,16.25,34.85,25.81,56.36,26.69c11.13,0.45,22.74-1.43,32.67-6.41c10.54-5.29,18.38-14.85,19.7-26.34
			c0.31-2.77,0.07-5.54-0.51-8.27c-0.55-2.57-3.86-4.29-6.41-3.49c-2.84,0.88-4.23,3.4-3.64,6.15c0.07,0.32,0.11,0.64,0.19,0.96
			c0.17,0.72-0.07-0.9-0.02-0.17c0.04,0.58,0.1,1.16,0.13,1.74c0.01,0.51,0.01,1.03-0.02,1.55c-0.01,0.32-0.04,0.64-0.07,0.96
			c-0.02,0.19-0.04,0.39-0.06,0.58c0.09-0.63,0.11-0.75,0.05-0.37c-0.22,1.08-0.44,2.16-0.76,3.22c-0.18,0.56-0.38,1.12-0.58,1.66
			c-0.1,0.27-0.41,1.13-0.01,0.08c-0.11,0.31-0.28,0.6-0.43,0.89c-0.5,1.01-1.06,1.98-1.69,2.93c-0.36,0.56-0.76,1.09-1.16,1.63
			c-0.14,0.19-0.63,0.71,0.06-0.07c-0.26,0.3-0.52,0.61-0.78,0.91c-0.76,0.85-1.59,1.65-2.45,2.4c-0.47,0.41-0.96,0.81-1.45,1.2
			c-0.74,0.6-0.1,0.08,0.05-0.03c-0.34,0.24-0.68,0.49-1.03,0.72c-2.09,1.41-4.33,2.61-6.65,3.61c-0.01,0-1.29,0.52-0.55,0.24
			c0.63-0.24-0.22,0.08-0.37,0.13c-0.59,0.23-1.2,0.44-1.8,0.64c-1.28,0.43-2.59,0.81-3.9,1.14c-1.18,0.3-2.36,0.56-3.56,0.79
			c-0.63,0.12-1.26,0.23-1.9,0.34c-0.33,0.06-0.68,0.11-1.01,0.16c-0.16,0.02-1.31,0.19-0.52,0.08c0.87-0.12-0.47,0.05-0.52,0.06
			c-0.27,0.03-0.54,0.06-0.81,0.09c-0.54,0.05-1.08,0.1-1.62,0.14c-1.36,0.11-2.71,0.17-4.07,0.2c-2.44,0.05-4.88-0.02-7.32-0.22
			c-0.54-0.04-1.08-0.09-1.62-0.15c-0.33-0.03-0.68-0.07-1.01-0.11c-0.31-0.04-1.27-0.1-0.03,0c-1.21-0.1-2.43-0.36-3.62-0.58
			c-4.88-0.9-9.6-2.31-14.22-4.08c-0.77-0.3,1.15,0.49-0.06-0.03c-0.25-0.11-0.5-0.21-0.74-0.32c-0.49-0.21-0.99-0.43-1.48-0.66
			c-1.22-0.56-2.43-1.15-3.63-1.78c-2.14-1.13-4.22-2.35-6.24-3.68c-0.45-0.3-0.89-0.6-1.32-0.9c-0.22-0.15-1.92-1.39-0.9-0.63
			c-0.96-0.72-1.91-1.46-2.83-2.23c-1.85-1.54-3.6-3.17-5.26-4.89c-0.82-0.86-1.64-1.74-2.41-2.65c-0.39-0.45-0.77-0.91-1.15-1.37
			c-0.47-0.56,0.51,0.67,0.07,0.08c-0.24-0.32-0.49-0.63-0.73-0.94c-1.48-1.95-2.85-3.97-4.1-6.05c-1.22-2.03-2.33-4.12-3.33-6.26
			c-0.15-0.32-0.78-1.61-0.28-0.6c-0.29-0.58-0.51-1.21-0.75-1.81c-0.44-1.09-0.84-2.2-1.22-3.31c-0.76-2.23-1.4-4.49-1.92-6.78
			c-0.26-1.14-0.49-2.3-0.7-3.45c-0.1-0.58-0.19-1.16-0.28-1.74c-0.11-0.73,0.1,0.9,0.02,0.17c-0.04-0.39-0.09-0.78-0.14-1.16
			c-0.52-4.72-0.54-9.5-0.02-14.22c0.05-0.52,0.1-1.04,0.19-1.55c-0.23,1.37,0.13-0.72,0.18-0.99c0.2-1.12,0.43-2.24,0.68-3.34
			c0.51-2.18,1.15-4.34,1.89-6.46c0.38-1.06,0.78-2.11,1.21-3.16c0.09-0.22,0.18-0.48,0.29-0.69c-0.56,1.02-0.13,0.27,0.01-0.01
			c0.26-0.57,0.53-1.14,0.8-1.7c1.02-2.08,2.17-4.11,3.42-6.08c0.57-0.9,1.18-1.79,1.79-2.66c0.33-0.46,0.67-0.92,1-1.37
			c0.16-0.2,0.3-0.4,0.46-0.6c0.13-0.17,0.88-1.22,0.13-0.17c1.29-1.81,2.99-3.46,4.59-5.02c1.63-1.59,3.37-3.04,5.15-4.46
			c0.97-0.78-0.64,0.45,0.01-0.01c0.26-0.18,0.51-0.37,0.77-0.55c0.42-0.29,0.83-0.58,1.25-0.86c1-0.67,2.03-1.3,3.08-1.9
			c0.94-0.54,1.9-1.05,2.87-1.53c0.52-0.26,1.03-0.5,1.56-0.74c0.31-0.14,0.63-0.28,0.94-0.42c0.22-0.09,1.46-0.6,0.43-0.19
			c2.51-1,5.1-1.83,7.72-2.54c5.28-1.43,10.68-2.38,16.06-3.31c5.55-0.96,11.12-1.9,16.57-3.31c5.77-1.5,11.25-3.7,16.59-6.25
			c2.63-1.26,5.22-2.56,7.87-3.8c-2.11-2.62-4.21-5.24-6.32-7.85c-0.57,0.5-1.17,0.97-1.76,1.45c-0.77,0.61,0.64-0.44-0.17,0.13
			c-0.37,0.26-0.72,0.51-1.1,0.76c-1.37,0.92-2.78,1.77-4.25,2.54c-0.68,0.36-1.37,0.7-2.05,1.02c-0.34,0.16-0.7,0.32-1.04,0.47
			c-0.18,0.08-0.35,0.15-0.53,0.23c-0.8,0.35,0.18-0.08,0.18-0.07c0.03,0.08-4.29,1.48-4.73,1.6c-1.54,0.44-3.12,0.8-4.7,1.09
			c-0.76,0.14-1.52,0.25-2.29,0.37c-0.6,0.09,0.41-0.06,0.43-0.06c-0.15-0.04-0.58,0.07-0.77,0.09c-0.45,0.05-0.9,0.09-1.35,0.12
			c-1.61,0.12-3.22,0.17-4.83,0.14c-1.54-0.03-3.52,0.1-5.01-0.34c0.01,0,1.03,0.15,0.43,0.06c-0.19-0.03-0.39-0.05-0.57-0.08
			c-0.39-0.06-0.76-0.12-1.14-0.19c-0.82-0.14-1.64-0.31-2.45-0.49c-1.56-0.36-3.11-0.79-4.62-1.31c-0.43-0.14-0.84-0.3-1.26-0.45
			c-0.18-0.07-1.27-0.52-0.63-0.24c0.65,0.28-0.44-0.2-0.62-0.27c-0.43-0.19-0.84-0.39-1.27-0.59c-1.68-0.81-3.33-1.68-5-2.53
			c-3.56-1.81-7.3-3.67-11.28-4.45c-4.59-0.9-9.11-0.47-13.28,1.68c-1.91,0.99-3.58,2.32-5.34,3.52c-1.71,1.16-3.51,2.21-5.39,3.12
			c-0.47,0.23-0.94,0.45-1.42,0.66c-0.3,0.13-1.53,0.6-0.62,0.27c-1.05,0.38-2.1,0.77-3.18,1.1c-2.08,0.63-4.2,1.1-6.35,1.43
			c0.93,3.21,1.85,6.43,2.77,9.64c2.67-0.66,5.34-1.31,8.01-1.97c2.64-0.65,4.49-3.61,3.64-6.15
			C265.73,277.97,263.03,276.4,260.19,277.1L260.19,277.1z"/>
	</g>
</g>
</svg>
